<svg width="32" height="32" viewBox="0 0 32 32" fill="none" xmlns="http://www.w3.org/2000/svg">
  <path d="M16 0C9.60964 0 4.41077 5.19887 4.41077 11.5891C4.41077 19.5196 14.782 31.1621 15.2235 31.6538C15.6383 32.1157 16.3624 32.1149 16.7764 31.6538C17.218 31.1621 27.5891 19.5196 27.5891 11.5891C27.589 5.19887 22.3902 0 16 0ZM16 17.4199C12.7848 17.4199 10.1692 14.8042 10.1692 11.5891C10.1692 8.374 12.7849 5.75837 16 5.75837C19.215 5.75837 21.8306 8.37406 21.8306 11.5892C21.8306 14.8043 19.215 17.4199 16 17.4199Z" fill="white"/>
</svg>
