<svg width="32" height="32" fill="none" xmlns="http://www.w3.org/2000/svg"><g clip-path="url(#clip0_32_171)" fill="#fff"><path d="M24.328 21.169c-1.045-1.032-2.35-1.032-3.389 0-.792.785-1.585 1.571-2.364 2.37-.213.22-.393.267-.652.12-.513-.28-1.06-.506-1.552-.812-2.297-1.445-4.222-3.303-5.926-5.394-.846-1.039-1.598-2.15-2.124-3.403-.107-.253-.087-.42.12-.626.792-.765 1.564-1.551 2.343-2.337 1.086-1.092 1.086-2.37-.006-3.47-.62-.625-1.239-1.238-1.858-1.864-.64-.639-1.272-1.285-1.918-1.917-1.045-1.02-2.35-1.02-3.39.006-.798.786-1.564 1.592-2.377 2.364C.483 6.92.103 7.791.024 8.81c-.127 1.658.28 3.223.852 4.747 1.172 3.157 2.956 5.96 5.12 8.53 2.924 3.477 6.413 6.227 10.495 8.211 1.838.892 3.742 1.578 5.813 1.691 1.425.08 2.664-.28 3.656-1.391.68-.76 1.445-1.452 2.164-2.178 1.066-1.079 1.072-2.384.013-3.45a1011.4 1011.4 0 00-3.809-3.801zm-1.271-5.308l2.457-.419a10.982 10.982 0 00-3.07-5.926 10.923 10.923 0 00-6.26-3.123l-.346 2.47a8.475 8.475 0 014.848 2.417 8.473 8.473 0 012.37 4.582zM26.899 5.18A18.118 18.118 0 0016.51 0l-.346 2.47a15.71 15.71 0 018.976 4.475 15.698 15.698 0 014.402 8.49l2.457-.42a18.251 18.251 0 00-5.101-9.834z"/></g><defs><clipPath id="clip0_32_171"><path fill="#fff" d="M0 0h32v32H0z"/></clipPath></defs></svg>