<svg width="32" height="32" fill="none" xmlns="http://www.w3.org/2000/svg"><g clip-path="url(#clip0_32_185)"><path d="M27.48 4.034C24.56 1.344 20.931 0 16.596 0 12.04 0 8.156 1.528 4.95 4.59 1.746 7.65.141 11.456.141 16.012c0 4.367 1.527 8.12 4.575 11.267C7.778 30.427 11.891 32 17.067 32c3.12 0 6.182-.64 9.185-1.926a1.958 1.958 0 001.058-2.526 1.952 1.952 0 00-2.585-1.058c-2.612 1.123-5.17 1.685-7.664 1.685-3.97 0-7.044-1.208-9.224-3.63-2.174-2.415-3.264-5.255-3.264-8.512 0-3.539 1.168-6.49 3.499-8.859 2.324-2.363 5.19-3.551 8.584-3.551 3.127 0 5.77.973 7.925 2.918 2.154 1.945 3.231 4.393 3.231 7.344 0 2.017-.496 3.701-1.482 5.04-.985 1.344-2.01 2.01-3.074 2.01-.575 0-.862-.307-.862-.927 0-.502.04-1.09.111-1.769L23.72 8.31h-4.178l-.267.973c-1.064-.868-2.233-1.306-3.5-1.306-2.01 0-3.733.803-5.163 2.402-1.436 1.6-2.147 3.663-2.147 6.182 0 2.461.633 4.453 1.906 5.96 1.273 1.515 2.8 2.266 4.589 2.266 1.6 0 2.963-.673 4.1-2.011.854 1.286 2.114 1.926 3.78 1.926 2.447 0 4.562-1.064 6.344-3.199 1.782-2.128 2.677-4.7 2.677-7.71 0-3.812-1.456-7.07-4.38-9.759zm-9.623 15.021c-.737.992-1.619 1.495-2.644 1.495-.698 0-1.26-.366-1.684-1.097-.43-.73-.646-1.638-.646-2.728 0-1.345.3-2.429.9-3.251.601-.823 1.346-1.24 2.233-1.24.77 0 1.456.306 2.057.926.6.62.9 1.443.9 2.474-.006 1.286-.378 2.422-1.116 3.421z" fill="#fff"/></g><defs><clipPath id="clip0_32_185"><path fill="#fff" d="M0 0h32v32H0z"/></clipPath></defs></svg>