<svg width="208" height="113" fill="none" xmlns="http://www.w3.org/2000/svg"><path fill-rule="evenodd" clip-rule="evenodd" d="M5.178 81.85L0 92.39h21.481V71.31H0l5.178 10.54zM208 71.31h-21.491v21.08H208l-5.188-10.54L208 71.31z" fill="#fff"/><path d="M41.954 66.775c-1.868.613-3.319 1.63-4.351 3.051-1.008 1.397-1.512 3.138-1.512 5.22 0 .932.086 1.57.258 1.912.172.344.258.552.258.626-2.63 0-3.945-1.116-3.945-3.346 0-1.52.578-3.04 1.733-4.559 1.18-1.544 2.68-2.794 4.498-3.75 1.844-.98 3.675-1.47 5.494-1.47.91 0 1.844.171 2.802.515l-.848 19.374 8.112-19.374h5.309l-3.871 27.058h-5.31l2.36-16.507-6.932 16.507h-5.05l.736-16.58-6.157 16.58h-2.95l9.366-25.257zm22.458 25.477c-1.82 0-3.233-.465-4.24-1.397-1.008-.956-1.512-2.438-1.512-4.448 0-1.691.332-3.554.996-5.588A12.819 12.819 0 0162.9 75.56c1.5-1.495 3.404-2.242 5.715-2.242 2.704 0 4.056 1.176 4.056 3.53a6.574 6.574 0 01-1.18 3.786c-.787 1.152-1.831 2.083-3.134 2.794a10.31 10.31 0 01-4.166 1.176 26.82 26.82 0 00-.074 1.471c0 1.2.209 2.022.627 2.463.418.417 1.093.625 2.028.625 1.327 0 2.457-.306 3.391-.919.96-.613 2.004-1.544 3.135-2.794h1.253c-2.728 4.534-6.108 6.801-10.14 6.801zm.073-9.411c.91-.05 1.77-.368 2.581-.956a6.48 6.48 0 001.991-2.243 5.71 5.71 0 00.775-2.867c0-1.005-.307-1.508-.922-1.508-.885 0-1.757.773-2.618 2.317-.836 1.544-1.438 3.296-1.806 5.257z" fill="#fff"/><path d="M75.797 73.65h5.31l-.48 2.28c.836-.736 1.585-1.3 2.25-1.692a4.397 4.397 0 012.211-.588c.787 0 1.401.27 1.844.809.467.539.7 1.188.7 1.948 0 .71-.233 1.336-.7 1.875-.467.54-1.119.809-1.954.809-.541 0-.91-.123-1.106-.368-.172-.27-.308-.65-.406-1.14-.074-.318-.147-.55-.221-.698-.074-.147-.21-.22-.406-.22-.516 0-.958.11-1.327.33-.344.196-.799.552-1.364 1.066l-2.95 13.97h-5.31l3.909-18.381zm16.628 18.602c-1.82 0-3.233-.465-4.24-1.397-1.008-.956-1.512-2.438-1.512-4.448 0-1.691.332-3.554.995-5.588.689-2.035 1.77-3.787 3.245-5.258 1.5-1.495 3.392-2.242 5.678-2.242 1.475 0 2.52.319 3.134.956.639.637.959 1.446.959 2.426 0 .858-.185 1.52-.553 1.985-.37.466-.836.699-1.401.699-.418 0-.849-.147-1.29-.441.294-.809.442-1.532.442-2.17 0-.465-.087-.833-.259-1.102-.172-.27-.43-.405-.774-.405-.737 0-1.475.6-2.212 1.802-.737 1.2-1.34 2.66-1.807 4.375-.467 1.715-.7 3.26-.7 4.632 0 1.2.209 2.022.627 2.463.417.417 1.093.625 2.027.625 1.328 0 2.458-.306 3.392-.919.96-.613 2.004-1.544 3.134-2.794h1.254c-2.728 4.534-6.108 6.801-10.14 6.801z" fill="#fff"/><path d="M105.727 92.252c-1.401 0-2.568-.478-3.503-1.433-.934-.956-1.401-2.451-1.401-4.486 0-1.813.357-3.713 1.07-5.698.737-2.01 1.819-3.701 3.244-5.074 1.45-1.397 3.171-2.095 5.162-2.095 1.008 0 1.758.172 2.249.515.492.343.738.796.738 1.36v.257l.405-1.948h5.31l-2.655 12.5c-.098.367-.148.76-.148 1.176 0 1.054.504 1.58 1.512 1.58.688 0 1.278-.318 1.77-.955.516-.637.922-1.47 1.217-2.5h1.548c-.909 2.647-2.04 4.448-3.392 5.404-1.327.932-2.667 1.397-4.019 1.397-1.032 0-1.868-.282-2.507-.845-.615-.588-.983-1.434-1.106-2.537-.713 1.005-1.512 1.826-2.397 2.463-.86.613-1.892.92-3.097.92zm2.397-3.566c.614 0 1.216-.282 1.806-.845.615-.589 1.033-1.385 1.254-2.39l1.77-8.309c0-.318-.123-.625-.369-.919-.246-.318-.627-.478-1.143-.478-.983 0-1.868.576-2.655 1.728-.786 1.128-1.401 2.5-1.843 4.118-.443 1.593-.664 3.002-.664 4.228 0 1.225.172 2.01.516 2.352.369.344.812.515 1.328.515z" fill="#fff"/><path d="M125.135 92.252c-1.402 0-2.569-.478-3.503-1.433-.934-.956-1.401-2.451-1.401-4.486 0-1.813.356-3.713 1.069-5.698.737-2.01 1.819-3.701 3.245-5.074 1.45-1.397 3.17-2.095 5.161-2.095 1.008 0 1.758.172 2.25.515.491.343.737.796.737 1.36v.147l1.807-8.456 5.456-.735-4.24 19.853c-.098.367-.147.76-.147 1.176 0 .49.111.846.332 1.066.246.196.639.294 1.18.294.688 0 1.278-.294 1.769-.882.517-.588.922-1.373 1.217-2.353h1.549c-1.5 4.387-3.97 6.58-7.411 6.58-1.008 0-1.832-.269-2.471-.808-.614-.54-.995-1.324-1.143-2.353a8.775 8.775 0 01-2.322 2.426c-.885.638-1.93.956-3.134.956zm2.396-3.566c.59 0 1.18-.27 1.77-.809.614-.539 1.032-1.286 1.254-2.242v-.184l1.806-8.419c-.221-.858-.725-1.287-1.512-1.287-.983 0-1.868.576-2.654 1.728-.787 1.128-1.401 2.5-1.844 4.118-.442 1.593-.663 3.002-.663 4.228 0 1.225.172 2.01.516 2.352a1.88 1.88 0 001.327.515z" fill="#fff"/><path d="M146.239 71.665c-.811 0-1.5-.282-2.065-.846a2.8 2.8 0 01-.848-2.059 2.8 2.8 0 01.848-2.059 2.756 2.756 0 012.065-.882c.811 0 1.499.294 2.065.882.59.564.885 1.25.885 2.06a2.74 2.74 0 01-.885 2.058 2.816 2.816 0 01-2.065.846zm-2.507 20.587c-1.18 0-2.139-.367-2.876-1.103-.713-.735-1.069-1.838-1.069-3.308 0-.613.098-1.41.294-2.39l2.508-11.801h5.309l-2.655 12.5c-.098.367-.147.76-.147 1.176 0 .49.11.846.332 1.066.246.196.639.294 1.18.294.712 0 1.376-.294 1.991-.882.614-.613 1.057-1.397 1.327-2.353h1.548c-.909 2.647-2.077 4.448-3.502 5.404-1.426.932-2.839 1.397-4.24 1.397z" fill="#fff"/><path d="M153.561 92.252c-1.179 0-2.138-.367-2.875-1.103-.713-.735-1.07-1.838-1.07-3.308 0-.613.099-1.41.295-2.39l2.212-10.33h-1.216l.295-1.471h1.216l1.107-5.074 5.456-.735-1.253 5.809h2.212l-.295 1.47h-2.212l-2.36 11.03c-.098.367-.147.76-.147 1.176 0 .49.11.846.331 1.066.246.196.64.294 1.18.294.713 0 1.377-.294 1.991-.882.615-.613 1.057-1.397 1.328-2.353h1.548c-.909 2.647-2.077 4.448-3.502 5.404-1.426.932-2.84 1.397-4.241 1.397z" fill="#fff"/><path d="M165.124 92.179c-1.819 0-3.257-.466-4.314-1.397-1.057-.932-1.585-2.402-1.585-4.412 0-1.691.332-3.541.995-5.551a12.818 12.818 0 013.245-5.258c1.499-1.495 3.417-2.242 5.752-2.242 2.9 0 4.461 1.654 4.682 4.963.541-.123 1.02-.417 1.438-.882.418-.49.811-1.042 1.18-1.655h1.18c-.664 1.324-1.254 2.365-1.77 3.125a6 6 0 01-2.028 1.802c-.147 2.304-.627 4.326-1.438 6.066-.786 1.74-1.819 3.088-3.097 4.044-1.278.931-2.691 1.397-4.24 1.397zm1.475-3.309c.909 0 1.757-.735 2.544-2.206.786-1.47 1.327-3.284 1.622-5.44-.59-.221-.885-.773-.885-1.655 0-.956.344-1.593 1.033-1.912-.049-.784-.185-1.323-.406-1.617-.197-.32-.528-.479-.995-.479-.812 0-1.586.589-2.323 1.765-.738 1.152-1.34 2.561-1.807 4.228-.442 1.642-.664 3.088-.664 4.338 0 1.177.136 1.973.406 2.39.27.392.762.588 1.475.588zM60.873 108.839h-3.839v4.03h-1.657v-9.511h6.06v1.333h-4.403v2.828h3.84v1.32zm2.626.431c0-.692.138-1.315.413-1.868a2.988 2.988 0 011.16-1.281c.497-.3 1.07-.45 1.716-.45.956 0 1.731.307 2.326.921.598.614.921 1.428.97 2.443l.006.372c0 .697-.136 1.32-.407 1.868-.266.549-.65.974-1.153 1.274-.498.301-1.074.451-1.73.451-1 0-1.8-.331-2.403-.993-.599-.666-.898-1.552-.898-2.659v-.078zm1.592.137c0 .727.15 1.298.452 1.712.301.409.72.614 1.258.614.537 0 .954-.209 1.251-.627.301-.418.452-1.03.452-1.836 0-.714-.155-1.28-.465-1.698-.306-.418-.723-.628-1.251-.628-.52 0-.933.207-1.238.621-.306.409-.459 1.023-.459 1.842zm7.389-.137c0-.692.137-1.315.412-1.868a2.988 2.988 0 011.16-1.281c.498-.3 1.07-.45 1.716-.45.957 0 1.732.307 2.326.921.598.614.922 1.428.97 2.443l.006.372c0 .697-.135 1.32-.406 1.868-.266.549-.65.974-1.153 1.274-.498.301-1.074.451-1.73.451-1 0-1.801-.331-2.404-.993-.598-.666-.897-1.552-.897-2.659v-.078zm1.591.137c0 .727.151 1.298.453 1.712.301.409.72.614 1.257.614.538 0 .955-.209 1.252-.627.301-.418.452-1.03.452-1.836 0-.714-.155-1.28-.465-1.698-.306-.418-.723-.628-1.252-.628-.52 0-.932.207-1.238.621-.306.409-.459 1.023-.459 1.842zm7.389-.124c0-1.089.254-1.962.76-2.619.507-.662 1.186-.993 2.038-.993.75 0 1.358.261 1.82.784v-3.619h1.593v10.033H86.23l-.08-.731c-.475.575-1.11.862-1.906.862-.83 0-1.502-.333-2.017-.999-.511-.667-.767-1.573-.767-2.718zm1.592.137c0 .719.138 1.281.413 1.686.28.4.675.601 1.186.601.65 0 1.127-.29 1.428-.869v-3.018c-.293-.566-.764-.849-1.415-.849-.516 0-.913.204-1.193.614-.28.405-.419 1.017-.419 1.835zm12.052.882c0-.44.12-.843.36-1.208.24-.371.714-.808 1.422-1.313-.371-.466-.631-.863-.78-1.189a2.343 2.343 0 01-.216-.947c0-.745.227-1.333.681-1.764.455-.436 1.066-.653 1.835-.653.694 0 1.262.204 1.703.614.446.405.668.908.668 1.509 0 .396-.1.762-.301 1.097-.201.331-.53.662-.99.993l-.648.47 1.841 2.169c.267-.523.4-1.104.4-1.744h1.382c0 1.171-.275 2.132-.825 2.881l1.402 1.652h-1.848l-.537-.633c-.681.509-1.494.764-2.437.764-.944 0-1.7-.248-2.267-.745-.563-.501-.845-1.152-.845-1.953zm3.158 1.431c.537 0 1.04-.179 1.507-.536l-2.084-2.45-.203.144c-.524.396-.786.849-.786 1.359 0 .44.142.797.426 1.071.284.275.664.412 1.14.412zm-.878-6.128c0 .366.225.826.675 1.379l.727-.497.203-.163c.27-.24.406-.547.406-.921a.833.833 0 00-.282-.634.997.997 0 00-.714-.268c-.31 0-.556.105-.74.314-.183.209-.275.472-.275.79zm12.733 7.264v-9.511h2.817c.843 0 1.59.187 2.241.562a3.84 3.84 0 011.52 1.594c.358.688.537 1.476.537 2.365v.476c0 .902-.181 1.695-.544 2.378a3.761 3.761 0 01-1.539 1.581c-.664.37-1.426.555-2.287.555h-2.745zm1.658-8.178v6.859h1.081c.869 0 1.535-.27 1.998-.81.467-.545.705-1.324.714-2.339v-.529c0-1.032-.225-1.82-.675-2.365-.45-.544-1.103-.816-1.959-.816h-1.159zm12.007 2.561a3.939 3.939 0 00-.649-.053c-.729 0-1.22.279-1.474.836v4.834h-1.592v-7.068h1.52l.039.791c.385-.614.918-.921 1.599-.921.227 0 .415.03.563.091l-.006 1.49zm4.041 5.617h-1.592v-7.068h1.592v7.068zm-1.69-8.903c0-.244.076-.447.229-.608.157-.161.38-.241.668-.241.288 0 .511.08.668.241a.836.836 0 01.236.608c0 .239-.079.44-.236.601-.157.156-.38.235-.668.235-.288 0-.511-.079-.668-.235a.84.84 0 01-.229-.601zm6.248 1.835l.046.817c.524-.632 1.212-.947 2.064-.947 1.476 0 2.227.842 2.253 2.528v4.67h-1.592v-4.579c0-.448-.098-.779-.294-.993-.193-.218-.509-.326-.95-.326-.642 0-1.121.289-1.435.868v5.03h-1.592v-7.068h1.5zm9.636 4.037l-.708.725v2.306h-1.592v-10.033h1.592v5.787l.498-.62 1.959-2.202h1.913l-2.634 2.946 2.916 4.122h-1.841l-2.103-3.031zm10.022 1.111a.718.718 0 00-.354-.647c-.231-.148-.618-.279-1.159-.392-.542-.113-.994-.257-1.356-.431-.795-.383-1.193-.938-1.193-1.666 0-.609.258-1.119.773-1.528.516-.41 1.171-.614 1.966-.614.847 0 1.531.209 2.05.627.524.418.787.96.787 1.626h-1.592a.966.966 0 00-.341-.757c-.227-.205-.529-.307-.904-.307-.35 0-.636.08-.858.241a.763.763 0 00-.328.647c0 .244.103.433.308.568.205.135.62.272 1.245.412.624.135 1.113.298 1.467.49.358.187.623.413.793.679.175.266.262.588.262.967 0 .636-.264 1.152-.793 1.548-.528.392-1.221.588-2.077.588-.58 0-1.098-.105-1.552-.314a2.56 2.56 0 01-1.062-.862 2.04 2.04 0 01-.38-1.182h1.547c.021.374.163.664.425.869.262.2.61.3 1.042.3.419 0 .738-.078.957-.235a.746.746 0 00.327-.627zm-48.083-83.29a49.162 49.162 0 00-27.835 8.67A48.943 48.943 0 0058.138 59.22h1.282a47.677 47.677 0 0117.56-22.04 47.888 47.888 0 0126.971-8.315 47.89 47.89 0 0126.972 8.314 47.676 47.676 0 0117.56 22.041h1.292a48.949 48.949 0 00-17.985-22.889 49.172 49.172 0 00-27.834-8.672z" fill="#fff"/><path d="M47.305 59.22a59.097 59.097 0 0121.432-30.17 59.38 59.38 0 0135.219-11.567 59.381 59.381 0 0135.22 11.567 59.104 59.104 0 0121.432 30.171h2.496a61.449 61.449 0 00-22.198-31.906 61.752 61.752 0 00-36.95-12.268 61.753 61.753 0 00-36.95 12.268A61.455 61.455 0 0044.808 59.22h2.497z" fill="#fff"/><path fill-rule="evenodd" clip-rule="evenodd" d="M95.65 37.84c1.67 1.521 6.421 5.464 8.909 7.556 2.487 2.093 4.002 3.1 11.192 11.625l1.865 2.219h13.029a312.633 312.633 0 00-4.1-3.633C115.43 45.92 113.4 44.389 111.496 42.413c-1.905-1.976-5.742-7.334-7.773-10.036a215.65 215.65 0 00-16.885-17.719C79.842 8.061 74.479 4.235 70.923 2.85c0 0-4.148-1.288-5.635-.92-1.486.368-3.351 1.337-1.059 3.875 2.293 2.538 29.74 30.515 31.42 32.036z" fill="#fff"/><path d="M103.315 44.36c3.76-3.7 7.219-7.014 8.608-8.283 3.041-2.78 3.06-2.131 5.169-2.906 2.108-.775 4.935.097 8.423-2.451 3.488-2.548 9.628-10.25 15.836-17.534 6.209-7.285 4.858-6.074 3.887-5.144-.972.93-17.673 17.437-18.722 18.173a1.122 1.122 0 01-1.364-.131 1.11 1.11 0 01-.21-1.35c.612-.795 1.137-1.396 4.547-5.203 3.41-3.807 13.495-14.686 13.252-14.85-.243-.165-18.46 17.902-19.431 18.735-.972.833-1.234.145-1.37 0-.146-.136-.787-.533 0-1.328.787-.794 19.343-18.687 19.198-18.919-.146-.233-11.387 9.6-15.293 12.942-3.905 3.342-4.527 3.875-5.333 4.447-.807.571-2.332-.465-1.584-1.492.748-1.027 17.682-17.34 18.634-18.27.952-.93 2.177-2.229-5.304 3.875-7.481 6.103-15.399 12.1-18.003 15.5-2.604 3.4-1.671 6.083-2.41 8.127-.738 2.044-.058 2.035-2.914 5.009-1.322 1.365-4.79 4.843-8.647 8.553l3.031 2.5zM89.296 59.22c.777-.968 1.535-1.85 2.244-2.683 2.118-2.48 6.334-6.781 10.434-10.85l-3.09-2.509c-4.109 3.933-8.413 7.944-10.91 9.978-2.283 1.85-5.081 4.02-7.772 6.064h9.094z" fill="#fff"/></svg>